# xmcd
#
# Track frame offsets: 
#        150
#        20954
#        36579
#        61326
#        77773
#        114543
#        134406
#        154263
#        176248
#        194387
#
# Disc length: 2801 seconds
#
# Revision: 0
# Processed by: cddbd v1.5.2PL0 Copyright (c) Steve Scherf et al.
# Submitted via: ExactAudioCopy v0.99pb5
#
DISCID=930aef0a
DTITLE=Dwayne Dopsie - Dopsie Strikes
DYEAR=2001
DGENRE=Blues
TTITLE0=Mom and Pop
TTITLE1=Sweet Little Angel Girl
TTITLE2=You're the Only One I Need
TTITLE3=Don't  Be a Fool
TTITLE4=Lost the Best Friend I Ever Had
TTITLE5=Tighten Up Zydeco
TTITLE6=How Much Else Can I Lose
TTITLE7=Country Girl
TTITLE8=Corn Fields
TTITLE9=Rock House
EXTD=
EXTT0=
EXTT1=
EXTT2=
EXTT3=
EXTT4=
EXTT5=
EXTT6=
EXTT7=
EXTT8=
EXTT9=
PLAYORDER=
